<?xml version="1.0" encoding="UTF-8"?><svg xmlns="http://www.w3.org/2000/svg" viewBox="0 0 100 100"><defs><style>.d{fill:#1695d3;}</style></defs><g id="a"/><g id="b"><g id="c"><path class="d" d="M0,93c0-28.67,0-57.33,0-86C-.02,4.06,1.12,.24,6,0,35.33,0,64.67,0,94,0c4.57,.08,6,3.47,6,6V94c-.29,2.88-2.52,5.67-6,6H6C.41,99.79,.07,96.05,0,93Zm56.47-18.8v-18.38h35.3v-5.51H50.56v29.37h29.5c0-1.88-.06-3.68-.1-5.61-7.87,0-15.61,.14-23.49,.14Zm6.05-6h23.36v17.96H50.11c.03,2.59-.08,3.84,.03,5.51,13.98,0,27.86,.02,41.65,.02v-29.32h-29.27v5.82ZM50.43,13.58h41.66c-.02-2.08,0-3.51-.02-5.19-13.98,0-27.84-.01-41.64-.01v5.2Zm41.35,14.09v-5.22H50.15c0,1.98-.02,3.48,0,5.2,13.98,0,27.81,.01,41.63,.01Zm0,14v-5.24H50.14c.01,1.96-.09,3.62,.01,5.34,13.97,0,27.82-.11,41.64-.11ZM13.62,91.78V50.26h-5.09v41.52h5.09Zm14.11,.02V50.35h-5.1v41.45h5.1Zm8.6-.09h5.3c0-14,.07-27.61,.07-41.63-2,.15-3.64,.02-5.37,.15v41.47Z"/></g></g></svg>