<?xml version="1.0" encoding="utf-8"?>
<!-- Generator: Adobe Illustrator 26.2.1, SVG Export Plug-In . SVG Version: 6.00 Build 0)  -->
<svg version="1.1" id="Layer_1" xmlns="http://www.w3.org/2000/svg" xmlns:xlink="http://www.w3.org/1999/xlink" x="0px" y="0px"
	 viewBox="0 0 381.4 141.7" style="enable-background:new 0 0 381.4 141.7;" xml:space="preserve">
<style type="text/css">
	.st0{fill:#056BB4;}
	.st1{fill:#096CB4;}
	.st2{fill:#086CB4;}
	.st3{fill:#0A6CB4;}
	.st4{fill:#0C6CB4;}
	.st5{fill:#8BAFD9;}
	.st6{fill:#076CB4;}
</style>
<path class="st0" d="M0,70.6c2.9-0.2,5.1-1.7,6.7-4.1C8,64.6,8.4,62.3,8.4,60V10.1c0-0.8,0-1.7,0.1-2.5c0.4-3.1,2.1-5.3,5-6.5
	c1.2-0.5,2.4-0.9,3.7-1C21-0.1,24.7,0,28.6,0v4.6c-0.8,0-1.5,0-2.2,0c-1.3,0.1-2.6,0.1-3.8,0.3c-2.4,0.4-3.9,1.9-4.2,4.3
	c-0.2,1.5-0.4,3-0.4,4.5l0,44.8c0,6.5-2.6,10.2-8.9,12.1c-0.1,0-0.1,0.1-0.2,0.2l1.7,0.5c4.6,1.6,7.4,5.8,7.4,10.9l0,45.6
	c0,1.5,0.1,2.9,0.4,4.4c0.5,2.6,1.8,3.9,4.4,4.3c1.5,0.2,2.9,0.2,4.4,0.3c0.5,0,0.9,0,1.5,0v4.7H17.1l-1.6-0.4
	c-3.7-0.9-6.2-3-6.9-6.9c-0.2-0.9-0.2-1.9-0.2-2.9V81.4c0-4.8-2.4-9.2-8.1-10.4C0.2,71,0.1,70.7,0,70.6L0,70.6z"/>
<path class="st1" d="M81.4,47v11.3H80l-26.3,0c-4,0-6.2,3.6-4.4,7.2c0.8,1.6,2.1,2.2,3.8,2.2l26.7,0h1.5v11.6H80
	c-9.2,0-18.4,0-27.6,0c-1.5,0-2.3,0.6-3,1.8c-0.9,1.6-0.9,3.2-0.3,4.9c0.6,1.7,2,2.6,4,2.6H80h1.4v11.4c-0.4,0-0.8,0.1-1.2,0.1
	c-9.6,0-19.2-0.1-28.8,0.1c-9.2,0.2-14-6.6-14.9-13.3c-0.6-4.5,0.1-8.8,2.5-12.7c0.2-0.3,0-1-0.2-1.3c-3.2-6.1-3.6-12.3-0.3-18.4
	c2.6-4.8,6.8-7.3,12.3-7.2h29L81.4,47L81.4,47z"/>
<path class="st2" d="M86.8,58.3V47.1h1.3H116c8.9,0,14.7,5.4,15.4,14.3c0.4,5.3-0.7,10.3-4.6,14.2c-2.7,2.7-6.1,3.7-9.8,3.7
	c-3.7,0-7.3,0.1-11,0c-6.1-0.2-8,4.4-7.8,9.2c0.2,3.9,0,7.8,0,11.8H86.7V99l0.1-17.1c0-1.9,0.4-3.9,1-5.7c1.9-5.3,6.4-8.4,12.2-8.4
	h14.5c1.9,0,3.6-0.5,4.4-2.4c0.8-1.9,0.7-3.8-0.6-5.5c-1-1.3-2.4-1.5-3.8-1.5H88.2L86.8,58.3L86.8,58.3z"/>
<path class="st3" d="M283.7,47.4v11.1h-1.4c-7.1,0-14.3,0-21.5-0.1c-3.5,0-5.9,1.5-7.5,4.5c-2.3,4.3-2.5,8.9-2.1,13.5
	c0.3,2.8,1,5.6,2.5,8c1.6,2.6,3.7,4.1,7,4l21.5,0h1.4V100h-1.3c-8.1,0-16.1,0-24.2,0c-6.1,0-10.8-2.5-14.2-7.4
	c-3.5-4.9-5-10.5-5.2-16.5c-0.2-6.3,0.5-12.4,3.5-18c2.2-4.3,5.2-8,10-9.7c1.8-0.6,3.7-1,5.6-1h25.2
	C283.2,47.3,283.4,47.4,283.7,47.4L283.7,47.4z"/>
<path class="st0" d="M174.8,100.1h-11.6V58.5h-11.9V47.3h35.4v11.1h-11.9L174.8,100.1L174.8,100.1z"/>
<path class="st4" d="M148,47.2v52.9h-11.8V47.2H148z"/>
<path class="st5" d="M341.6,92.8c0-3.9,2.5-6.5,6.1-6.5c3.7,0,6.6,2.7,6.6,6.3c-0.1,4.6-3.5,7.2-6.6,7.1
	C344.3,99.7,341.6,96.6,341.6,92.8L341.6,92.8z"/>
<path class="st1" d="M234.4,45.8v11.3H233l-26.3,0c-4,0-6.2,3.6-4.4,7.2c0.8,1.6,2.1,2.2,3.8,2.2l26.7,0h1.5V78H233
	c-9.2,0-18.4,0-27.6,0c-1.4,0-2.3,0.6-3,1.8c-0.9,1.6-0.9,3.2-0.3,4.9c0.6,1.7,2,2.6,4.1,2.6h26.7h1.4v11.4c-0.4,0-0.8,0.1-1.2,0.1
	c-9.6,0-19.2-0.1-28.8,0.1c-9.2,0.2-14-6.6-14.9-13.3c-0.6-4.5,0.1-8.8,2.5-12.7c0.2-0.3,0-1-0.2-1.3c-3.2-6.1-3.6-12.3-0.3-18.4
	c2.6-4.8,6.8-7.3,12.3-7.2h29L234.4,45.8L234.4,45.8z"/>
<polygon class="st6" points="323.8,47.2 324.6,47.1 335.4,47.1 335.4,99.6 323.9,99.6 323.9,79 303.1,79 303.1,99.6 291.5,99.6 
	291.5,47.1 303,47.1 303,67.5 323.8,67.5 323.8,47.2 "/>
<path class="st0" d="M381.6,71.3c-2.9,0.2-5.1,1.7-6.7,4.1c-1.3,1.9-1.8,4.2-1.8,6.5v49.9c0,0.8,0,1.7-0.1,2.5
	c-0.4,3.1-2.1,5.3-5,6.5c-1.2,0.5-2.4,0.9-3.7,1c-3.8,0.1-7.6,0.1-11.4,0.1v-4.6c0.8,0,1.5,0,2.2,0c1.3-0.1,2.6-0.1,3.8-0.3
	c2.4-0.4,3.9-1.9,4.2-4.3c0.2-1.5,0.4-3,0.4-4.5l0-44.8c0-6.5,2.6-10.2,8.8-12.1c0.1,0,0.1-0.1,0.2-0.2l-1.7-0.5
	c-4.6-1.6-7.4-5.8-7.4-10.9l0-45.6c0-1.5-0.1-2.9-0.4-4.4c-0.5-2.6-1.8-3.9-4.4-4.3c-1.5-0.2-2.9-0.2-4.4-0.3c-0.5,0-0.9,0-1.5,0
	V0.2h11.5l1.6,0.4c3.7,0.9,6.2,3,6.9,6.9c0.2,0.9,0.2,1.9,0.2,2.9v50.1c0,4.8,2.4,9.2,8.1,10.4C381.4,70.9,381.5,71.2,381.6,71.3
	L381.6,71.3z"/>
</svg>
