<?xml version="1.0" encoding="UTF-8"?><svg xmlns="http://www.w3.org/2000/svg" viewBox="0 0 52.32 76.03"><defs><style>.d{fill:#ec6911;}</style></defs><g id="a"/><g id="b"><g id="c"><path class="d" d="M51.84,0V8.24c-1.81,0-3.44,0-5.06,0-9.99,0-19.99,0-29.98,0-1.17,0-2.36-.12-3.49,.08-2.57,.43-4.55,2.92-4.37,5.27,.18,2.35,1.94,4.13,4.59,4.47,1.15,.15,2.33,.05,3.49,.05,7.16,0,14.32,.03,21.49-.01,2.9-.01,5.61,.57,8.04,2.2,5.49,3.68,7.38,10.32,4.33,16.24-1.12,2.17-2.77,4.15-4.51,5.89-10.36,10.37-20.86,20.6-31.19,30.99-1.93,1.95-3.89,2.61-6.59,2.61-2.44,0-4.89-.04-8.29-.04,1.72-1.85,2.76-3.06,3.89-4.18,11.64-11.44,23.3-22.86,34.94-34.29,1.07-1.05,2.23-2.05,3.09-3.26,2.45-3.43,1-6.67-3.22-7-2.98-.23-5.99-.08-8.99-.08-5.66-.01-11.33,.14-16.99-.06C6.7,26.92,.98,21.48,.12,15.23-.74,8.97,2.98,2.84,9.06,.69,10.29,.26,11.66,.04,12.96,.03,25.77-.02,38.58,0,51.84,0Z"/></g></g></svg>